{
    "asset" : {
        "generator" : "Khronos glTF Blender I/O v1.8.19",
        "version" : "2.0"
    },
    "scene" : 0,
    "scenes" : [
        {
            "name" : "Scene",
            "nodes" : [
                0
            ]
        }
    ],
    "nodes" : [
        {
            "mesh" : 0,
            "name" : "\u96d5\u5851_\u72ee\u5b50"
        }
    ],
    "materials" : [
        {
            "doubleSided" : true,
            "name" : "Mat3d66-1525640-1-3887",
            "pbrMetallicRoughness" : {
                "baseColorFactor" : [
                    0.01960800029337406,
                    0.01960800029337406,
                    0.01960800029337406,
                    1
                ],
                "metallicFactor" : 0.5196850299835205,
                "roughnessFactor" : 0.5
            }
        }
    ],
    "meshes" : [
        {
            "name" : "Obj3d66-1525640-3740-793",
            "primitives" : [
                {
                    "attributes" : {
                        "POSITION" : 0,
                        "NORMAL" : 1,
                        "TEXCOORD_0" : 2
                    },
                    "indices" : 3,
                    "material" : 0
                }
            ]
        }
    ],
    "accessors" : [
        {
            "bufferView" : 0,
            "componentType" : 5126,
            "count" : 2988,
            "max" : [
                0.4380113482475281,
                1.6699235439300537,
                1.624413013458252
            ],
            "min" : [
                -0.4380113482475281,
                -1.909211277961731e-08,
                -1.6244127750396729
            ],
            "type" : "VEC3"
        },
        {
            "bufferView" : 1,
            "componentType" : 5126,
            "count" : 2988,
            "type" : "VEC3"
        },
        {
            "bufferView" : 2,
            "componentType" : 5126,
            "count" : 2988,
            "type" : "VEC2"
        },
        {
            "bufferView" : 3,
            "componentType" : 5123,
            "count" : 2988,
            "type" : "SCALAR"
        }
    ],
    "bufferViews" : [
        {
            "buffer" : 0,
            "byteLength" : 35856,
            "byteOffset" : 0
        },
        {
            "buffer" : 0,
            "byteLength" : 35856,
            "byteOffset" : 35856
        },
        {
            "buffer" : 0,
            "byteLength" : 23904,
            "byteOffset" : 71712
        },
        {
            "buffer" : 0,
            "byteLength" : 5976,
            "byteOffset" : 95616
        }
    ],
    "buffers" : [
        {
            "byteLength" : 101592,
            "uri" : "data:application/octet-stream;base64,"
        }
    ]
}
